<?xml version="1.0" standalone="no"?>
<!DOCTYPE svg PUBLIC "-//W3C//DTD SVG 20010904//EN"
 "http://www.w3.org/TR/2001/REC-SVG-20010904/DTD/svg10.dtd">
<svg version="1.0" xmlns="http://www.w3.org/2000/svg"
 width="300.000000pt" height="300.000000pt" viewBox="0 0 300.000000 300.000000"
 preserveAspectRatio="xMidYMid meet">
<metadata>
Created by potrace 1.11, written by Peter Selinger 2001-2013
</metadata>
<g transform="translate(0.000000,300.000000) scale(0.100000,-0.100000)"
fill="#000000" stroke="none">
<path d="M1253 2975 c-544 -92 -997 -476 -1168 -989 -57 -171 -78 -299 -78
-476 0 -164 2 -187 28 -315 39 -187 114 -365 226 -535 80 -121 271 -313 391
-393 185 -124 392 -208 593 -242 109 -19 340 -26 420 -13 28 4 68 10 90 13
109 13 298 76 420 139 359 187 632 506 749 875 36 113 43 147 65 306 8 61 6
270 -3 345 -27 210 -125 472 -239 640 -102 150 -266 315 -417 417 -156 106
-400 202 -575 228 -22 3 -55 8 -73 11 -85 16 -303 10 -429 -11z m444 -6 c333
-45 647 -206 874 -446 185 -197 302 -412 372 -687 30 -115 31 -131 32 -326 0
-229 -10 -295 -71 -480 -136 -409 -465 -756 -864 -910 -207 -79 -325 -99 -570
-96 -102 2 -205 8 -230 14 -25 6 -57 13 -71 15 -60 11 -251 81 -333 123 -403
204 -689 574 -785 1015 -11 52 -23 119 -26 149 -6 66 -7 285 -1 320 3 14 7 43
11 65 3 22 13 69 21 105 9 36 17 74 20 85 7 37 77 210 107 265 238 443 653
731 1142 793 67 9 299 6 372 -4z"/>
<path d="M1388 2915 c-2 -2 -30 -6 -63 -10 -302 -34 -590 -174 -814 -394 -240
-237 -370 -498 -418 -841 -9 -62 -8 -272 1 -345 67 -541 444 -999 961 -1170
104 -34 137 -41 280 -63 61 -9 270 -8 345 2 483 65 902 372 1105 810 89 192
129 375 129 586 0 239 -38 411 -134 617 -156 334 -464 611 -813 729 -156 54
-272 74 -434 78 -79 2 -144 2 -145 1z m367 -36 c227 -45 454 -150 622 -286 32
-26 64 -52 71 -58 7 -5 48 -50 92 -98 174 -194 281 -405 336 -662 22 -104 28
-427 10 -510 -4 -16 -11 -48 -16 -70 -5 -22 -23 -82 -40 -134 -131 -402 -443
-726 -841 -874 -520 -195 -1099 -64 -1492 336 -262 266 -400 610 -396 987 3
419 182 797 507 1073 88 74 267 179 388 226 71 27 234 71 291 78 27 3 50 7 52
9 2 2 76 3 165 2 111 0 189 -6 251 -19z"/>
<path d="M1348 2669 c-10 -5 -18 -21 -18 -35 0 -21 9 -29 55 -49 54 -24 63
-37 46 -64 -6 -10 -21 -12 -50 -8 -50 6 -55 -9 -6 -19 57 -10 104 33 77 72 -4
6 -28 21 -54 32 -48 21 -59 40 -35 60 17 15 19 15 49 3 15 -6 30 -6 33 -2 11
19 -69 27 -97 10z"/>
<path d="M1227 2653 c-3 -5 -10 -27 -16 -50 l-12 -43 -30 35 c-17 19 -38 35
-47 35 -11 0 0 -17 31 -48 28 -28 49 -60 53 -80 10 -50 25 -38 19 16 -4 31 -1
61 9 89 8 23 11 45 6 48 -5 3 -11 2 -13 -2z"/>
<path d="M1735 2648 c-5 -13 -35 -155 -35 -164 0 -2 4 -4 10 -4 5 0 13 18 16
41 l7 41 39 -6 c46 -8 44 8 -3 18 -23 4 -30 10 -25 22 3 9 6 23 6 31 0 16 9
15 86 -3 19 -4 26 -3 19 3 -8 9 -90 33 -110 33 -3 0 -8 -6 -10 -12z"/>
<path d="M1920 2606 c0 -3 -13 -41 -30 -85 -16 -45 -25 -81 -20 -81 5 0 16 16
24 35 18 42 42 38 51 -8 11 -54 16 -67 25 -62 4 3 4 22 0 42 -5 21 -8 38 -7
38 49 15 72 49 55 80 -13 22 -98 58 -98 41z m77 -43 c26 -33 -16 -68 -58 -50
-25 12 -26 13 -12 45 11 28 17 32 36 27 12 -4 27 -14 34 -22z"/>
<path d="M994 2495 c3 -55 6 -101 6 -103 0 -2 5 0 10 3 6 4 9 19 7 33 -3 23 1
29 27 38 27 10 34 9 53 -9 13 -11 26 -17 29 -14 4 4 -26 39 -65 79 l-73 73 6
-100z m52 -12 c-32 -19 -36 -16 -36 28 l0 40 29 -28 c29 -28 29 -28 7 -40z"/>
<path d="M860 2525 c0 -3 14 -32 30 -65 29 -57 28 -79 0 -44 -8 8 -21 19 -31
25 -16 8 -17 6 -8 -23 15 -55 10 -55 -40 1 -26 30 -51 50 -54 44 -3 -5 9 -25
26 -44 18 -20 44 -50 60 -67 46 -53 55 -41 31 41 -5 16 -3 17 15 5 12 -7 21
-16 21 -19 0 -10 30 -20 40 -14 11 7 -66 165 -80 165 -5 0 -10 -2 -10 -5z"/>
<path d="M2087 2498 c-9 -18 -28 -52 -41 -75 -19 -31 -22 -44 -13 -51 22 -17
79 -44 84 -38 3 2 -9 12 -25 20 -40 21 -45 29 -31 60 12 27 33 34 44 16 3 -5
16 -10 28 -9 19 0 17 3 -10 16 -38 19 -39 20 -14 52 l18 24 35 -21 c38 -24 48
-27 48 -14 0 8 -83 52 -98 52 -5 0 -16 -15 -25 -32z"/>
<path d="M2263 2419 c-27 -10 -30 -41 -8 -79 20 -35 18 -58 -5 -70 -18 -10
-25 -6 -50 20 -20 22 -30 27 -30 16 0 -24 41 -56 71 -56 46 0 55 23 35 85 -27
78 -1 103 47 45 32 -38 42 -39 23 -2 -18 35 -53 52 -83 41z"/>
<path d="M620 2362 c0 -4 29 -36 64 -71 l64 -64 41 33 c23 19 41 35 41 37 0
10 -22 0 -49 -22 l-30 -26 -57 61 c-54 56 -74 70 -74 52z"/>
<path d="M2369 2274 c-74 -65 -79 -71 -79 -84 0 -7 16 2 36 20 l37 32 26 -27
26 -26 -34 -29 c-19 -16 -32 -33 -28 -36 7 -7 147 96 147 108 0 13 -9 9 -41
-14 l-29 -22 -27 27 -27 27 29 30 c47 49 21 45 -36 -6z"/>
<path d="M1333 2279 c-62 -13 -118 -33 -193 -71 -90 -45 -118 -66 -201 -148
-84 -84 -101 -107 -147 -200 -60 -123 -83 -211 -86 -334 -4 -154 24 -273 96
-406 l40 -75 -32 -26 c-23 -19 -39 -25 -63 -23 -50 6 -69 39 -69 119 0 56 3
67 28 90 26 24 26 25 5 25 -35 0 -69 -44 -73 -95 -5 -63 7 -99 43 -129 38 -32
87 -34 138 -6 l36 20 90 -87 c155 -151 326 -223 540 -228 227 -4 436 83 591
246 67 72 94 110 137 195 57 112 78 199 81 333 8 293 -146 570 -395 710 -176
99 -368 129 -566 90z m377 -24 c433 -135 668 -573 534 -992 -121 -380 -515
-610 -904 -528 -173 36 -360 152 -451 277 l-20 28 30 37 c28 36 81 137 110
210 7 18 21 35 31 38 29 9 138 121 127 131 -2 2 -20 -15 -39 -38 -20 -24 -50
-51 -67 -61 l-31 -18 29 78 c16 43 49 129 74 191 l45 112 -25 0 c-16 0 -27 -7
-30 -20 -7 -27 -17 -25 -31 5 -6 14 -16 25 -22 25 -7 0 -7 -7 1 -21 33 -62
-37 -276 -114 -347 -21 -20 -26 -21 -36 -8 -42 50 31 297 105 355 15 12 22 21
15 21 -22 0 -89 -71 -119 -127 -70 -133 -77 -274 -14 -290 22 -5 32 1 66 38
21 24 37 37 34 29 -49 -128 -135 -301 -154 -307 -14 -5 -71 104 -100 193 -32
96 -43 264 -25 369 53 301 282 545 586 626 91 24 311 21 395 -6z"/>
<path d="M1346 1916 c-7 -30 2 -56 19 -56 15 0 28 42 19 64 -9 24 -31 19 -38
-8z"/>
<path d="M1600 1726 c-14 -37 -34 -41 -75 -16 -67 42 -76 33 -152 -140 -45
-104 -106 -203 -141 -231 l-26 -20 -8 20 c-9 26 9 86 76 250 53 131 54 132 29
129 -20 -2 -29 -16 -54 -78 -16 -41 -36 -87 -45 -103 -8 -15 -12 -32 -8 -39 4
-7 3 -8 -4 -4 -7 4 -12 4 -13 -1 -1 -4 -3 -21 -4 -38 -2 -16 -5 -46 -8 -65
-16 -121 67 -99 147 40 35 60 106 214 106 228 0 5 7 15 15 22 12 10 21 8 50
-10 23 -14 42 -19 56 -15 16 5 20 4 14 -6 -4 -8 3 -3 14 11 29 33 54 81 47 87
-3 3 -10 -6 -16 -21z"/>
<path d="M1859 1727 c-16 -36 -36 -41 -75 -16 -49 30 -75 22 -101 -31 -12 -25
-24 -56 -27 -70 -4 -14 5 -1 18 28 14 28 28 52 32 52 4 0 22 -9 40 -21 22 -13
41 -18 55 -14 15 5 19 4 15 -4 -4 -6 -5 -11 -3 -11 10 0 69 101 64 107 -4 3
-12 -6 -18 -20z"/>
<path d="M1957 1690 c-44 -48 -79 -116 -103 -195 -18 -64 -37 -100 -68 -127
-24 -23 -23 -23 -68 8 -25 18 -46 25 -62 22 -24 -5 -22 0 23 56 69 88 132 176
127 176 -3 0 -36 -42 -74 -92 -38 -51 -90 -120 -116 -152 -25 -33 -46 -64 -46
-70 0 -6 12 4 26 22 14 17 29 32 33 32 5 0 25 -13 46 -30 21 -16 47 -30 58
-30 20 0 83 61 97 95 8 17 9 16 10 -10 1 -53 11 -75 38 -82 22 -5 32 1 64 37
21 23 38 48 38 54 0 6 -14 -6 -31 -27 -37 -45 -55 -47 -64 -7 -12 52 6 139 50
243 18 44 72 107 91 107 36 0 29 -126 -13 -223 -18 -44 -25 -77 -24 -112 4
-84 38 -99 90 -40 30 34 87 135 76 135 -2 0 -16 -21 -29 -47 -54 -108 -115
-140 -106 -58 2 24 47 152 89 258 17 43 31 80 31 82 0 3 -9 5 -20 5 -13 0 -25
-11 -34 -32 -11 -26 -15 -29 -15 -12 -1 26 -31 54 -58 54 -11 0 -37 -18 -56
-40z"/>
<path d="M1529 1613 c-13 -16 -12 -17 4 -4 16 13 21 21 13 21 -2 0 -10 -8 -17
-17z"/>
<path d="M2206 1605 c-9 -26 -7 -32 5 -12 6 10 9 21 6 23 -2 3 -7 -2 -11 -11z"/>
<path d="M1410 1455 c-57 -74 -101 -138 -98 -141 3 -3 16 9 28 25 12 17 26 31
32 31 6 0 26 -13 45 -30 43 -39 68 -38 107 3 30 32 84 124 105 180 20 51 3 27
-32 -46 -33 -71 -77 -127 -99 -127 -5 0 -24 12 -41 26 -21 18 -39 25 -58 22
l-28 -4 32 39 c46 56 119 157 114 157 -2 0 -51 -61 -107 -135z"/>
<path d="M2165 1509 c-4 -6 -5 -12 -2 -15 2 -3 7 2 10 11 7 17 1 20 -8 4z"/>
<path d="M522 2221 c50 -83 85 -131 91 -124 4 3 0 17 -8 30 -15 22 -14 25 10
50 19 22 27 25 37 15 7 -7 21 -12 32 -12 13 0 17 3 10 10 -11 11 -111 48 -162
60 l-32 8 22 -37z m74 -7 c24 -6 24 -7 8 -25 -23 -25 -27 -24 -48 13 -18 29
-18 31 -2 25 10 -4 29 -10 42 -13z"/>
<path d="M315 1613 c-38 -9 -115 -46 -115 -54 0 -5 8 -9 19 -9 17 0 60 -41
121 -117 33 -40 88 -73 123 -73 41 0 91 24 110 53 16 25 16 27 -10 59 -27 32
-27 33 -2 10 31 -27 41 -20 27 21 -27 85 -159 138 -273 110z"/>
<path d="M2548 1589 c-57 -16 -108 -67 -115 -114 l-6 -40 29 25 29 25 -27 -30
-27 -31 18 -30 c19 -32 64 -54 108 -54 36 0 95 34 123 72 51 67 103 118 121
118 34 0 20 17 -33 40 -60 26 -163 35 -220 19z"/>
<path d="M2010 603 c-13 -44 -17 -46 -75 -45 l-30 1 37 -30 c36 -30 37 -30 22
-64 -17 -41 -6 -46 33 -15 25 20 25 20 55 -1 36 -26 40 -22 28 20 -8 29 -6 35
23 61 l32 29 -38 -3 c-40 -3 -51 8 -67 63 -7 25 -8 24 -20 -16z"/>
<path d="M1484 510 l-18 -59 -65 -3 -66 -3 52 -38 51 -37 -19 -62 c-11 -33
-18 -62 -16 -64 1 -1 25 15 54 36 l51 39 56 -40 55 -40 -13 43 c-7 24 -16 53
-20 65 -6 19 1 28 46 60 l53 38 -66 3 -66 3 -19 59 c-10 33 -22 60 -25 60 -4
0 -15 -27 -25 -60z"/>
<path d="M967 512 c-16 -40 -19 -42 -59 -42 l-43 0 37 -25 37 -25 -14 -40
c-16 -45 -11 -48 25 -20 31 25 36 25 71 -1 31 -22 35 -16 18 28 -9 25 -7 30
23 55 l33 27 -42 1 c-27 0 -43 5 -43 13 -1 6 -7 25 -14 42 l-12 29 -17 -42z"/>
</g>
</svg>
